<?xml version="1.0" encoding="UTF-8"?>
<svg height="16px" viewBox="0 0 16 16" width="16px" xmlns="http://www.w3.org/2000/svg" xmlns:xlink="http://www.w3.org/1999/xlink">
    <filter id="a" height="100%" width="100%" x="0%" y="0%">
        <feColorMatrix color-interpolation-filters="sRGB" values="0 0 0 0 1 0 0 0 0 1 0 0 0 0 1 0 0 0 1 0"/>
    </filter>
    <mask id="b">
        <g filter="url(#a)">
            <rect fill-opacity="0.42" height="19.2" width="19.2" x="-1.6" y="-1.6"/>
        </g>
    </mask>
    <clipPath id="c">
        <rect height="152" width="192"/>
    </clipPath>
    <g mask="url(#b)">
        <g clip-path="url(#c)" transform="matrix(1 0 0 1 -168 -16)">
            <path d="m 99.25 39.230469 h -57.371094 c -2.871094 -0.019531 -5.632812 1.105469 -7.675781 3.128906 c -2.039063 2.019531 -3.191406 4.769531 -3.203125 7.640625 v 42 c 0.023438 5.972656 4.878906 10.792969 10.847656 10.769531 c 1.609375 -0.003906 2.921875 1.292969 2.933594 2.902344 v 10.480469 c 0.007812 1.003906 0.621094 1.90625 1.550781 2.285156 c 0.933594 0.378906 2 0.160156 2.707031 -0.554688 l 13.671876 -13.882812 c 0.804687 -0.808594 1.902343 -1.265625 3.046874 -1.269531 h 33.492188 c 5.957031 0.027343 10.816406 -4.769531 10.859375 -10.730469 v -42 c -0.023437 -5.96875 -4.878906 -10.789062 -10.851563 -10.769531 z m 0 0" fill="#036b41"/>
        </g>
    </g>
    <path d="m 3.890625 16 c -0.191406 0 -0.382813 -0.039062 -0.5625 -0.109375 c -0.535156 -0.222656 -0.886719 -0.746094 -0.886719 -1.332031 v -1.398438 c -1.398437 -0.230468 -2.4296872 -1.433594 -2.441406 -2.851562 v -7.410156 c 0.00390625 -0.773438 0.3125 -1.511719 0.863281 -2.058594 c 0.550781 -0.542969 1.292969 -0.84375025 2.066407 -0.839844 h 10.140624 c 0.773438 -0.00390625 1.515626 0.296875 2.066407 0.839844 c 0.550781 0.546875 0.859375 1.285156 0.863281 2.058594 v 7.410156 c -0.011719 1.609375 -1.324219 2.902344 -2.929688 2.890625 h -5.808593 l -2.339844 2.371093 c -0.273437 0.273438 -0.644531 0.429688 -1.03125 0.429688 z m -1 -14 c -0.503906 -0.003906 -0.914063 0.398438 -0.921875 0.898438 v 7.410156 c 0.003906 0.242187 0.101562 0.472656 0.277344 0.636718 c 0.171875 0.167969 0.402344 0.261719 0.644531 0.253907 c 0.839844 0 1.519531 0.679687 1.519531 1.519531 v 0.472656 l 1.449219 -1.460937 c 0.328125 -0.339844 0.78125 -0.53125 1.25 -0.53125 h 5.890625 c 0.242188 0.007812 0.472656 -0.085938 0.644531 -0.253907 c 0.175781 -0.164062 0.273438 -0.394531 0.277344 -0.636718 v -7.410156 c -0.007813 -0.5 -0.417969 -0.902344 -0.921875 -0.898438 z m 0 0"/>
    <g fill="none" stroke="#000000" stroke-linecap="round" stroke-linejoin="round">
        <path d="m 4.390625 4.679687 l 1.757813 1.75 l -1.769532 1.761719"/>
        <path d="m 7.339844 8.53125 h 3.332031" stroke-width="0.87"/>
    </g>
</svg>
